<?xml version="1.0" encoding="UTF-8" standalone="no"?>
<!--
I, the author of this work, hereby publish it under the following license:
Permission is granted to copy, distribute and/or modify this document under the 
terms of the GNU Free Documentation License, Version 1.2 or any later version 
published by the Free Software Foundation; with no Invariant Sections, no 
Front-Cover Texts, and no Back-Cover Texts. A copy of the license is included 
in the section entitled "GNU Free Documentation License".

This file is based on the template originaly found here: 
http://commons.wikimedia.org/wiki/Image:Rowing_Blade_Template.svg
For help on editing this file, please see that url.

Template by: Gary van der Merwe 2006
Derived work by:                                   <- Put your name here!
-->

<svg
   xmlns:dc="http://purl.org/dc/elements/1.1/"
   xmlns:cc="http://creativecommons.org/ns#"
   xmlns:rdf="http://www.w3.org/1999/02/22-rdf-syntax-ns#"
   xmlns:svg="http://www.w3.org/2000/svg"
   xmlns="http://www.w3.org/2000/svg"
   xmlns:xlink="http://www.w3.org/1999/xlink"
   xmlns:sodipodi="http://sodipodi.sourceforge.net/DTD/sodipodi-0.dtd"
   xmlns:inkscape="http://www.inkscape.org/namespaces/inkscape"
   width="500"
   height="230"
   id="svg2"
   version="1.1"
   inkscape:version="0.91 r13725"
   sodipodi:docname="Real Circulo de Labradores rowing blade.svg">
  <metadata
     id="metadata47">
    <rdf:RDF>
      <cc:Work
         rdf:about="">
        <dc:format>image/svg+xml</dc:format>
        <dc:type
           rdf:resource="http://purl.org/dc/dcmitype/StillImage" />
        <dc:title></dc:title>
      </cc:Work>
    </rdf:RDF>
  </metadata>
  <sodipodi:namedview
     pagecolor="#ffffff"
     bordercolor="#666666"
     borderopacity="1"
     objecttolerance="10"
     gridtolerance="10"
     guidetolerance="10"
     inkscape:pageopacity="0"
     inkscape:pageshadow="2"
     inkscape:window-width="1920"
     inkscape:window-height="1018"
     id="namedview45"
     showgrid="false"
     inkscape:zoom="2.483359"
     inkscape:cx="277.31155"
     inkscape:cy="165.5691"
     inkscape:window-x="1016"
     inkscape:window-y="-8"
     inkscape:window-maximized="1"
     inkscape:current-layer="svg2" />
  <defs
     id="defs4">
    <linearGradient
       id="loomGradient"
       gradientUnits="userSpaceOnUse"
       x2="0"
       y1="-14"
       y2="14">
      <stop
         offset="0%"
         style="stop-color:black;"
         id="stop7" />
      <stop
         offset="25%"
         style="stop-color:lightgray;"
         id="stop9" />
      <stop
         offset="60%"
         style="stop-color:black;"
         id="stop11" />
    </linearGradient>
    <!-- Ensure these colors match up with the background of the spoon-->
    <linearGradient
       id="ridgeGradient"
       gradientUnits="userSpaceOnUse"
       x2="0"
       y1="-15"
       y2="15">
      <stop
         offset="0%"
         style="stop-color:lightgray;"
         id="stop14" />
      <stop
         offset="45%"
         style="stop-color:white;"
         id="stop16" />
      <stop
         offset="55%"
         style="stop-color:darkgray;"
         id="stop18" />
      <stop
         offset="100%"
         style="stop-color:lightgray;"
         id="stop20" />
    </linearGradient>
    <radialGradient
       id="fadeRidgeGradient"
       cx="0"
       cy="0"
       r="77.459667"
       gradientTransform="scale(2.5819889,0.38729833)"
       fx="0"
       fy="0"
       gradientUnits="userSpaceOnUse">
      <stop
         offset="50%"
         style="stop-color:lightgray; stop-opacity:0"
         id="stop23" />
      <stop
         offset="95%"
         style="stop-color:lightgray;"
         id="stop25" />
    </radialGradient>
    <path
       id="spoonPath"
       d="M 105,75 C 105,76 106,77 107,77 C 139,89 170,149 177,181 C 231,199 389,201 455,201 C 458,201 461,198 461,195 L 450,27 C 450,24 447,21 444,21 L 113,43 C 112,43 111,44 111,45  Z" />
    <clipPath
       id="spoonClip">
      <use
         xlink:href="#spoonPath"
         id="use29" />
    </clipPath>
  </defs>
  <!-- loom of the blade -->
  <rect
     fill="url(#loomGradient)"
     transform="rotate(9) translate(117, 41)"
     x="-200"
     y="-14"
     height="28"
     width="200"
     id="rect31" />
  <path
     style="fill:#e42222;fill-opacity:1;stroke:none"
     d="m 144.13014,110.16998 c -4.97034,-7.01931 -9.86072,-12.883018 -15.30787,-18.354573 -4.62357,-4.644287 -7.48122,-7.059899 -12.07425,-10.206512 -3.06732,-2.101377 -8.58207,-5.017536 -10.04329,-5.310819 -0.46919,-0.09417 -1.07213,-0.414136 -1.33987,-0.711034 -0.45937,-0.509408 -0.45227,-0.681158 0.12615,-3.049419 0.33711,-1.380284 0.80802,-3.670856 1.04647,-5.090161 0.23846,-1.419306 1.35017,-7.225553 2.47048,-12.902773 1.42835,-7.238314 2.18492,-10.480303 2.53231,-10.851348 0.45467,-0.485639 7.53535,-0.998693 86.14446,-6.241867 47.107,-3.142004 85.69303,-5.668629 85.74674,-5.614722 0.24715,0.248018 2.33387,37.455763 3.98476,71.050908 l 0.19166,3.90009 -4.96484,0.19132 c -9.00426,0.34697 -20.39875,0.74298 -42.25026,1.46837 -11.86419,0.39386 -27.22836,0.90904 -34.14258,1.14486 -6.91423,0.23582 -22.53553,0.75248 -34.714,1.14816 -12.17847,0.39566 -23.09854,0.75174 -24.2668,0.79127 l -2.12411,0.0719 -1.01516,-1.43364 z"
     id="path4238"
     inkscape:connector-curvature="0" />
  <use
     xlink:href="#spoonPath"
     strokewidth="1"
     id="use43"
     stroke="Black"
     fill="none" />
  <!-- Any thing in here will be cliped to the shape of the spoon -->
  <!-- Outline of the spoon -->
  <path
     style="fill:#ffffff;fill-rule:evenodd;stroke:none;stroke-width:1px;stroke-linecap:butt;stroke-linejoin:miter;stroke-opacity:1;fill-opacity:1"
     d="m 143.35422,109.97607 9.94117,15.02502 135.67813,-4.19813 4.20298,75.97591 15.26598,0.83218 -4.27107,-77.2352 151.86414,-4.76225 -1.02416,-15.40076 -151.49104,4.60389 -4.40432,-74.420371 -15.35219,0.931198 4.12748,73.967353 z"
     id="path3420"
     inkscape:connector-curvature="0" />
  <path
     style="fill:#e42222;fill-opacity:1"
     d="m 405.23239,200.56199 c -31.77455,-0.43376 -97.48574,-2.61231 -98.12191,-3.25308 -0.13632,-0.13729 -4.50841,-77.49699 -4.38771,-77.63566 0.0605,-0.0694 149.8489,-4.7323 151.50304,-4.71627 l 1.44734,0.014 2.63353,40.68118 c 2.6087,40.29805 2.62628,40.69473 1.86441,42.11965 -0.42302,0.79116 -1.35895,1.80564 -2.07984,2.2544 -1.26846,0.7896 -2.02962,0.81294 -23.60082,0.7234 -12.25955,-0.0509 -25.42567,-0.13533 -29.25804,-0.18765 z"
     id="path4224"
     inkscape:connector-curvature="0" />
  <path
     style="fill:#0330af;fill-opacity:1"
     d="m 299.62503,68.562851 c -1.19855,-20.540309 -2.11969,-37.395297 -2.04698,-37.455529 0.19616,-0.162497 144.51766,-9.786634 146.55116,-9.772823 1.41316,0.0096 2.04721,0.2919 3.36969,1.500297 1.00784,0.920875 1.71719,1.987842 1.86025,2.798025 0.23889,1.352996 5.09616,75.440359 4.95624,75.597069 -0.072,0.0806 -18.32988,0.66434 -113.98038,3.64411 -18.25898,0.56882 -34.39798,1.03436 -35.86446,1.03454 l -2.66634,3.3e-4 -2.17918,-37.346019 z"
     id="path4226"
     inkscape:connector-curvature="0" />
  <path
     style="fill:#0330af;fill-opacity:1"
     d="m 279.81498,195.73008 c -46.88593,-3.58005 -77.73742,-7.76047 -97.20615,-13.17155 -6.83498,-1.89969 -6.13339,-1.36714 -7.14497,-5.42351 -3.40794,-13.6656 -11.96248,-34.09389 -20.58515,-49.15749 -0.88393,-1.5442 -1.50332,-2.91197 -1.3764,-3.03948 0.19413,-0.19506 89.7852,-3.11703 124.53599,-4.06169 l 10.70664,-0.29104 0.23894,2.22129 c 0.26066,2.42327 3.94479,70.05836 3.93461,72.23363 l -0.006,1.33651 -2.96735,-0.0499 c -1.63204,-0.0275 -6.1905,-0.29599 -10.12991,-0.59679 z"
     id="path4228"
     inkscape:connector-curvature="0" />
</svg>
