<?xml version="1.0" encoding="UTF-8" standalone="no"?>
<!--
I, the author of this work, hereby publish it under the following license:
Permission is granted to copy, distribute and/or modify this document under the 
terms of the GNU Free Documentation License, Version 1.2 or any later version 
published by the Free Software Foundation; with no Invariant Sections, no 
Front-Cover Texts, and no Back-Cover Texts. A copy of the license is included 
in the section entitled "GNU Free Documentation License".

This file is based on the template originaly found here: 
http://commons.wikimedia.org/wiki/Image:Rowing_Blade_Template.svg
For help on editing this file, please see that url.

Template by: Gary van der Merwe 2006
Derived work by:                                   <- Put your name here!
-->

<svg
   xmlns:dc="http://purl.org/dc/elements/1.1/"
   xmlns:cc="http://creativecommons.org/ns#"
   xmlns:rdf="http://www.w3.org/1999/02/22-rdf-syntax-ns#"
   xmlns:svg="http://www.w3.org/2000/svg"
   xmlns="http://www.w3.org/2000/svg"
   xmlns:xlink="http://www.w3.org/1999/xlink"
   xmlns:sodipodi="http://sodipodi.sourceforge.net/DTD/sodipodi-0.dtd"
   xmlns:inkscape="http://www.inkscape.org/namespaces/inkscape"
   width="500"
   height="230"
   id="svg2"
   version="1.1"
   inkscape:version="0.92.2 5c3e80d, 2017-08-06"
   sodipodi:docname="Tiempo Libre El Ejido Rowing Club.svg">
  <metadata
     id="metadata47">
    <rdf:RDF>
      <cc:Work
         rdf:about="">
        <dc:format>image/svg+xml</dc:format>
        <dc:type
           rdf:resource="http://purl.org/dc/dcmitype/StillImage" />
        <dc:title></dc:title>
      </cc:Work>
    </rdf:RDF>
  </metadata>
  <sodipodi:namedview
     pagecolor="#ffffff"
     bordercolor="#666666"
     borderopacity="1"
     objecttolerance="10"
     gridtolerance="10"
     guidetolerance="10"
     inkscape:pageopacity="0"
     inkscape:pageshadow="2"
     inkscape:window-width="1920"
     inkscape:window-height="1010"
     id="namedview45"
     showgrid="false"
     inkscape:zoom="1.756"
     inkscape:cx="207.80116"
     inkscape:cy="152.81463"
     inkscape:window-x="1024"
     inkscape:window-y="0"
     inkscape:window-maximized="1"
     inkscape:current-layer="svg2" />
  <defs
     id="defs4">
    <linearGradient
       id="loomGradient"
       gradientUnits="userSpaceOnUse"
       x2="0"
       y1="-14"
       y2="14">
      <stop
         offset="0%"
         style="stop-color:black;"
         id="stop7" />
      <stop
         offset="25%"
         style="stop-color:lightgray;"
         id="stop9" />
      <stop
         offset="60%"
         style="stop-color:black;"
         id="stop11" />
    </linearGradient>
    <!-- Ensure these colors match up with the background of the spoon-->
    <linearGradient
       id="ridgeGradient"
       gradientUnits="userSpaceOnUse"
       x2="0"
       y1="-15"
       y2="15">
      <stop
         offset="0%"
         style="stop-color:lightgray;"
         id="stop14" />
      <stop
         offset="45%"
         style="stop-color:white;"
         id="stop16" />
      <stop
         offset="55%"
         style="stop-color:darkgray;"
         id="stop18" />
      <stop
         offset="100%"
         style="stop-color:lightgray;"
         id="stop20" />
    </linearGradient>
    <radialGradient
       id="fadeRidgeGradient"
       cx="0%"
       cy="50%"
       r="100%">
      <stop
         offset="50%"
         style="stop-color:lightgray; stop-opacity:0"
         id="stop23" />
      <stop
         offset="95%"
         style="stop-color:lightgray;"
         id="stop25" />
    </radialGradient>
    <path
       id="spoonPath"
       d="M 105,75 C 105,76 106,77 107,77 C 139,89 170,149 177,181 C 231,199 389,201 455,201 C 458,201 461,198 461,195 L 450,27 C 450,24 447,21 444,21 L 113,43 C 112,43 111,44 111,45  Z" />
    <clipPath
       id="spoonClip">
      <use
         xlink:href="#spoonPath"
         id="use29" />
    </clipPath>
  </defs>
  <!-- loom of the blade -->
  <rect
     fill="url(#loomGradient)"
     transform="rotate(9) translate(117, 41)"
     x="-200"
     y="-14"
     height="28"
     width="200"
     id="rect31" />
  <!-- Any thing in here will be cliped to the shape of the spoon -->
  <g
     clip-rule="nonzero"
     clip-path="url(#spoonClip)"
     id="g33"
     style="fill-rule:evenodd;fill:#2a73b6;fill-opacity:1">
    <!-- Background of the spoon -->
    <rect
       x="0"
       y="0"
       width="100%"
       height="100%"
       id="rect35"
       style="fill-rule:evenodd;fill:#2a73b6;fill-opacity:1"
       fill="lightgray" />
    <!-- Ridge on the spoon -->
    <g
       transform="rotate(9) translate(117, 41)"
       id="g37"
       style="fill-rule:evenodd;fill:#2a73b6;fill-opacity:1">
      <rect
         x="0"
         y="-15"
         height="30"
         width="200"
         class="spoon"
         id="rect39"
         style="fill-rule:evenodd;fill:#2a73b6;fill-opacity:1"
         stroke="none"
         fill="url(#ridgeGradient)" />
      <rect
         x="0"
         y="-15"
         height="30"
         width="200"
         class="spoon"
         id="rect41"
         style="fill-rule:evenodd;fill:#2a73b6;fill-opacity:1"
         stroke="none"
         fill="url(#fadeRidgeGradient)" />
    </g>
    <!--Put design in here-->
  </g>
  <!-- Outline of the spoon -->
  <use
     xlink:href="#spoonPath"
     stroke="Black"
     strokewidth="1"
     fill="none"
     id="use43" />
  <g
     id="g4759"
     transform="rotate(-7.8384158,-1549.1137,-1033.9511)"
     style="fill:#ffffff;fill-opacity:1">
    <path
       inkscape:connector-curvature="0"
       id="path4741"
       d="m 91.774032,359.84182 c -1.625756,-2.10711 -1.568233,-4.29197 -2.203114,-6.37973 -0.347612,-0.76292 -1.197236,-0.8303 -3.089981,-0.24506 -3.913306,1.21001 -7.587614,1.77866 -11.455295,2.13896 -4.475669,0.41694 -9.129325,1.12603 -13.485132,0.0159 -3.125033,-0.79645 -6.315014,-2.25882 -8.48913,-4.64071 -1.08755,-1.19148 -1.946139,-2.82058 -1.925259,-4.44015 0.02074,-1.60902 0.492986,-1.6342 3.430338,-3.39663 3.235167,-1.94112 3.268711,-1.98388 3.325461,-4.23931 0.01957,-0.92505 -0.05171,-1.94336 0.51206,-2.64047 1.790949,-2.21453 5.022109,-3.13232 7.862242,-3.34514 1.531594,-0.11477 4.985587,3.16963 4.82219,4.17826 -0.161556,0.99727 -4.906841,2.52755 -6.98984,3.57135 -0.858238,0.45262 -1.265108,0.95268 -1.265108,1.55484 0.998436,1.32497 2.327279,2.67834 2.780621,4.03034 -1.812479,0.36914 -3.43483,0.55748 -5.330727,1.10089 -3.40389,2.3289 0.961626,2.66802 2.841816,3.00533 1.09827,0.11152 2.391573,-0.21107 3.433084,-0.28259 1.877905,-0.12547 4.539003,-0.56062 7.147577,-1.1688 2.370533,-0.61359 4.225434,-1.74087 5.956573,-3.05714 0.78453,-0.59578 2.370084,-2.15438 3.523454,-3.46354 1.153369,-1.30917 2.537212,-2.84768 3.075207,-3.41891 0.537995,-0.57123 1.126916,-1.26243 1.308712,-1.53599 0.181796,-0.27356 0.814552,-1.16523 1.406123,-1.98149 2.29855,-3.17159 3.529152,-6.35357 3.892267,-10.06427 0.183745,-1.87771 0.299481,-2.39139 0.551765,-2.44894 0.373764,-0.0853 2.425597,0.89143 3.440022,1.63748 1.05943,0.77915 2.370817,1.98845 3.457192,3.18806 0.91514,1.01053 0.97229,1.13899 0.97229,2.18535 0,1.88431 -0.53544,2.76697 -3.835716,6.3231 -3.202098,3.45034 -4.078095,5.3135 -4.011246,8.53152 0.01881,0.90567 -0.02713,4.13826 -0.102102,7.18353 -0.07805,3.17036 -0.0555,6.18226 0.05276,7.04691 0.103988,0.83052 0.146743,1.6233 0.09501,1.76172 -0.182564,0.4885 -0.781321,0.2409 -1.704118,-0.70469 z"
       style="fill:#ffffff;fill-opacity:1;stroke:none;stroke-width:0.2013402;stroke-opacity:1"
       sodipodi:nodetypes="cccaaasscasscccccccccsscscscsscscccc" />
    <path
       inkscape:connector-curvature="0"
       id="path4743"
       d="m 148.63972,395.70855 c -0.67649,-0.30414 -1.2821,-2.73475 -1.85061,-7.42742 -0.22807,-1.88254 -0.50458,-4.14761 -0.61447,-5.03351 -0.1099,-0.8859 -0.65967,-3.06037 -1.22172,-4.83216 -2.08712,-6.57938 -2.10883,-7.94491 -0.23318,-14.67004 0.73395,-2.4141 1.56263,-5.45688 1.18295,-5.92463 -0.54775,-0.67481 -1.48654,-0.25355 -3.08213,0.48648 -3.53818,1.64099 -3.37689,1.5973 -9.93071,2.69033 -2.04863,0.34167 -5.35565,0.8963 -7.34891,1.23252 -4.55712,0.76868 -6.19885,0.48629 -8.95964,-0.67479 -3.32535,-1.39851 -7.69543,-3.01969 -8.12895,-7.14453 -0.26696,-3.0455 1.55167,-5.58527 5.43025,-7.58351 1.79098,-1.07577 4.14834,-1.67102 5.77172,-2.79167 0.47287,-0.38425 0.58513,-0.67841 0.74881,-1.96207 0.10819,-1.49396 0.22144,-2.98159 0.61955,-4.41251 1.17834,-4.23529 8.25933,-5.89354 12.44698,-6.05718 0.95709,0 2.18702,0.83322 2.56488,1.73758 0.27601,0.66058 0.26246,0.72863 -0.30664,1.5405 -0.32748,0.46717 -1.71158,1.93924 -3.07578,3.27128 -2.50632,2.44723 -3.57643,3.96382 -3.85508,5.46352 -0.17078,0.91914 0.46569,1.74574 2.48915,3.23275 2.44685,1.79816 2.92032,2.24289 2.6624,2.5008 -0.11854,0.11854 -1.57788,0.38167 -3.24297,0.58471 -3.41262,0.41616 -6.8601,1.27457 -9.41643,2.34467 -1.64204,0.68737 -1.7804,0.79537 -2.8201,2.20126 -1.14328,1.54594 -1.64409,3.02657 -1.26397,3.73684 0.41605,0.7774 2.76288,0.97852 5.37454,0.46059 1.08848,-0.21586 2.33348,-0.69934 4.16932,-1.61908 2.14018,-1.07222 3.14973,-1.44093 5.53685,-2.0222 3.50058,-0.77674 6.45661,-1.65672 9.81124,-2.71024 2.65108,-0.83427 4.3796,-0.65015 7.1956,0.76647 1.81222,0.91166 4.16816,3.24431 5.13824,5.08746 0.60458,1.14868 0.69839,1.53028 0.76727,3.12077 0.0901,2.07981 -0.26684,3.92765 -1.07728,5.57752 -0.49691,1.01159 -2.06018,8.1804 -2.40607,11.03368 l -0.13432,1.10801 1.45775,2.00378 c 2.0676,2.84207 2.61235,4.14029 2.8186,6.7171 0.15944,1.99201 0.14169,2.15168 -0.42417,3.81536 -0.70401,2.06984 -1.38881,2.99875 -2.69203,3.65164 -0.94878,0.47533 -3.47159,0.78286 -4.10094,0.49992 z"
       style="fill:#ffffff;fill-opacity:1;stroke:none;stroke-width:0.2013402;stroke-opacity:1"
       sodipodi:nodetypes="cccscscccaccccsccccscccsccccccccccscccccc" />
    <path
       inkscape:connector-curvature="0"
       id="path4745"
       d="m 153.34022,341.99944 c -0.78946,-0.74456 -0.69238,-1.51438 -0.41702,-2.21254 0.81719,-2.07193 1.82685,-3.91438 2.8334,-5.76696 0.44048,0 1.98989,1.06232 2.90515,1.99185 1.01818,1.03407 1.14946,1.27511 1.56232,2.86869 0.74105,2.86035 0.51733,6.24356 -0.41014,6.20217 -2.25704,-0.63284 -4.629,-1.84183 -6.47371,-3.08321 z"
       style="fill:#ffffff;fill-opacity:1;stroke:none;stroke-width:0.2013402;stroke-opacity:1"
       sodipodi:nodetypes="csccscc" />
    <path
       inkscape:connector-curvature="0"
       id="path4747"
       d="m 174.0563,347.6302 c -0.33641,-0.14655 -1.70169,-0.94859 -3.03396,-1.7823 -1.33227,-0.83372 -2.89175,-1.75373 -3.46549,-2.04447 -1.02939,-0.52163 -1.1979,-0.7715 -0.8695,-1.28935 0.2903,-0.45776 4.5529,1.8881 7.5307,4.14442 1.43911,1.09043 1.34929,1.62996 -0.16175,0.9717 z"
       style="fill:#ffffff;fill-opacity:1;stroke:none;stroke-width:0.2013402;stroke-opacity:1" />
    <path
       inkscape:connector-curvature="0"
       id="path4749"
       d="m 167.68052,369.05792 c -2.27531,-0.4798 -3.73289,-1.16164 -4.98304,-2.331 -1.86908,-1.74831 -2.67671,-4.48229 -1.91456,-6.48113 0.37478,-0.98289 1.78397,-3.16286 2.65306,-4.10419 0.4459,-0.48295 0.56192,-0.51311 1.33008,-0.34575 1.14509,0.24949 2.6831,0.74893 3.69044,1.1984 0.84468,0.3769 2.08397,1.70722 2.08397,2.23704 0,0.15834 -0.21492,1.00603 -0.4776,1.88376 -0.26267,0.87773 -0.54445,2.0822 -0.62617,2.67661 -0.0817,0.59459 -0.36503,1.39971 -0.62977,1.78982 -0.30779,0.45356 -0.4812,0.99757 -0.4812,1.50961 0,0.68486 0.12362,0.91353 0.85561,1.58263 0.9659,0.88292 0.91999,0.89467 -1.50082,0.3842 z"
       style="fill:#ffffff;fill-opacity:1;stroke:none;stroke-width:0.2013402;stroke-opacity:1" />
    <path
       inkscape:connector-curvature="0"
       id="path4751"
       d="m 211.3622,372.19564 c -0.96895,-0.22728 -1.54531,-0.35593 -2.30283,-0.58785 -1.77427,-0.54321 -3.40262,-1.2649 -5.24006,-1.87874 -4.46992,-1.50258 -5.205,-1.52921 -8.01015,-0.29013 -2.5375,1.12085 -3.91672,1.25066 -6.84606,0.64435 -3.95835,-0.8193 -8.95683,-2.6723 -11.27505,-4.17982 -2.03578,-1.32385 -2.4034,-2.07927 -2.31541,-3.46586 0.0929,-1.46345 0.48672,-2.17551 2.88655,-3.31974 2.02125,-0.98274 4.76739,-3.59728 6.65977,-3.02591 1.79697,0.61229 4.12328,-0.33052 4.93063,-1.99828 1.14122,-2.35746 1.30017,-5.30668 0.42957,-7.97081 -0.66886,-2.0468 -2.04938,-9.43668 -2.16693,-11.59956 -0.0464,-0.85442 0.0305,-1.7265 0.19531,-2.21474 0.24182,-0.71624 0.4418,-0.89143 1.80723,-1.58319 l 1.53532,-0.77782 1.47542,1.01996 c 1.79281,1.23936 2.79783,2.25441 3.42098,3.45512 0.37952,0.73127 0.47666,1.25556 0.50363,2.71809 0.0588,3.18976 0.46665,5.52553 1.39737,8.00329 0.77653,2.06729 0.79123,2.52326 0.17756,5.51009 -0.44492,2.16553 -0.57736,3.36926 -0.58796,5.3437 -0.0136,2.53227 -0.01,2.55409 0.6063,3.42278 0.88845,1.25286 1.38595,1.17627 3.86748,-0.59544 2.95235,-2.10786 4.14099,-2.67719 5.60402,-2.68418 2.17464,-0.0104 3.34937,0.37709 6.30788,2.08072 1.57474,0.76167 3.0124,1.05946 4.64069,1.24405 1.6698,0.1597 3.75433,0.70913 4.96947,1.23612 1.50684,0.6535 1.94837,1.5179 1.59188,3.11647 -1.33482,3.55877 -1.55225,3.67187 -3.32806,5.56864 -1.75104,1.10756 -3.86163,2.68504 -6.10238,3.1625 -1.68397,0.1352 -3.29983,-0.0274 -4.83217,-0.35381 z m 3.05135,-3.84719 c 1.19116,-0.48049 2.41406,-1.13315 3.19648,-2.15173 0.70573,-0.91875 1.65101,-2.49373 1.13185,-3.28606 -0.18457,-0.28169 -0.60267,-0.70235 -0.92911,-0.9348 -0.73603,-0.5241 -1.49346,-0.44613 -4.1855,0.43088 -3.31803,1.08093 -4.78492,2.29579 -4.97649,4.12146 -0.0717,0.68362 0.0141,0.93214 0.53724,1.55614 0.43236,0.51568 0.78069,0.70618 1.27256,0.8138 1.2996,0.28433 2.89896,-0.1473 3.95297,-0.54969 z m -27.01084,-1.82884 c 0.76536,-0.27812 0.64076,-1.63526 0.57547,-2.37422 -0.0712,-0.78896 -0.12277,-2.00893 -0.11469,-2.71105 0.0288,-2.50022 -0.90899,-2.88012 -2.996,-1.21374 -1.45832,1.1644 -1.92812,2.02448 -1.72348,3.15528 0.93836,1.90877 2.60035,3.74635 4.2587,3.14373 z"
       style="fill:#ffffff;fill-opacity:1;stroke:none;stroke-width:0.2013402;stroke-opacity:1"
       sodipodi:nodetypes="cacccsacccccccccccccccscccccccccacccccacaccsca" />
  </g>
</svg>
